<?xml version="1.0" standalone="no"?>
<!DOCTYPE svg PUBLIC "-//W3C//DTD SVG 20010904//EN"
 "http://www.w3.org/TR/2001/REC-SVG-20010904/DTD/svg10.dtd">
<svg version="1.0" xmlns="http://www.w3.org/2000/svg"
 width="512.000000pt" height="512.000000pt" viewBox="0 0 512.000000 512.000000"
 preserveAspectRatio="xMidYMid meet">

<g transform="translate(0.000000,512.000000) scale(0.100000,-0.100000)"
fill="#000000" stroke="none">
<path d="M2560 4772 l0 -349 -107 -7 c-479 -29 -920 -222 -1244 -545 -99 -99
-169 -183 -169 -203 0 -4 21 -8 48 -8 46 1 48 3 87 57 42 59 173 184 265 253
295 222 628 344 999 366 l121 7 0 -344 c0 -189 3 -374 7 -411 l6 -68 153 0
c85 0 154 -3 154 -7 -1 -5 -11 -28 -23 -53 l-22 -44 -127 -1 c-70 0 -130 -4
-134 -7 -3 -4 -4 -15 0 -24 5 -14 21 -16 114 -13 102 4 107 3 107 -16 0 -19
-8 -20 -119 -23 l-118 -3 3 -203 4 -203 150 -8 c134 -6 154 -9 192 -32 24 -14
45 -28 48 -33 2 -4 -85 -5 -195 -2 l-199 5 -1 -1043 c0 -574 -2 -1045 -3
-1047 -8 -7 -253 20 -342 39 -184 37 -427 127 -560 205 -347 206 -558 430
-733 778 -78 157 -125 302 -152 470 -59 371 -14 710 145 1080 37 86 64 205 47
205 -11 0 -56 -60 -92 -125 -161 -290 -243 -745 -196 -1080 21 -149 58 -303
98 -415 35 -97 124 -284 165 -347 72 -108 124 -181 150 -208 15 -16 41 -46 57
-65 43 -53 151 -165 153 -160 2 3 15 -5 30 -17 41 -33 111 -84 170 -123 29
-19 53 -38 53 -42 0 -5 6 -8 13 -8 12 0 31 -9 107 -52 25 -13 62 -30 83 -37
22 -8 34 -17 30 -24 -4 -6 0 -8 10 -4 9 3 19 2 22 -3 4 -6 16 -10 28 -10 13 0
33 -7 46 -16 24 -17 254 -76 386 -98 44 -8 126 -17 183 -21 l102 -7 0 -339 0
-339 1280 0 1280 0 0 2560 0 2560 -1280 0 -1280 0 0 -348z m305 -378 c482 -72
918 -317 1197 -675 66 -84 168 -245 168 -264 0 -11 -68 -51 -74 -44 -2 2 -13
25 -24 51 -53 122 -217 327 -352 440 -283 237 -636 386 -1012 427 -54 6 -120
11 -148 11 l-50 0 0 41 0 42 98 -7 c53 -4 142 -13 197 -22z m413 -673 c1 -3
29 -49 62 -101 33 -52 60 -102 60 -112 0 -22 -27 -23 -51 -2 -23 21 -152 37
-255 32 -65 -3 -90 -9 -127 -31 -77 -45 -72 -8 18 130 58 89 76 103 106 85 26
-17 100 -14 123 3 18 14 57 11 64 -4z m-430 -133 c3 -16 -6 -18 -87 -18 -85 0
-91 1 -91 20 0 20 5 21 87 18 74 -3 88 -6 91 -20z m817 2 c0 -12 -18 -16 -87
-18 -69 -2 -88 0 -88 11 0 24 13 28 95 25 63 -2 80 -6 80 -18z m63 -121 l3
-46 -127 -7 c-137 -7 -144 -5 -170 47 -29 54 -20 58 143 55 l148 -3 3 -46z
m-477 21 c110 -33 151 -67 196 -156 33 -67 38 -89 41 -158 5 -109 -21 -179
-86 -237 -95 -83 -126 -72 -44 16 69 73 92 129 91 219 -1 112 -63 215 -159
263 -48 24 -67 28 -140 28 -72 -1 -93 -5 -136 -28 -107 -55 -169 -168 -162
-292 3 -44 13 -85 26 -110 22 -44 97 -119 137 -137 28 -13 33 -28 10 -28 -56
0 -144 69 -183 144 -23 44 -27 63 -27 141 0 115 26 183 93 250 96 96 215 125
343 85z m4 -79 c52 -23 128 -106 146 -157 36 -105 0 -221 -92 -293 -82 -66
-175 -79 -264 -37 -91 42 -155 142 -155 241 0 44 24 121 51 159 61 90 215 132
314 87z m473 -59 c3 -23 3 -23 -110 -20 -96 3 -113 5 -116 20 -4 21 20 26 133
24 86 -1 90 -2 93 -24z m631 -2 c27 0 71 -48 99 -109 22 -48 24 -63 20 -151
-8 -154 -51 -212 -209 -276 -46 -18 -85 -38 -87 -43 -6 -17 67 -24 111 -11 23
6 62 23 86 36 l43 24 -6 -32 c-8 -43 -71 -152 -114 -200 -47 -52 -137 -103
-228 -130 -81 -24 -94 -43 -38 -54 52 -10 121 3 172 31 25 14 47 23 50 21 9
-10 -89 -144 -138 -190 -58 -55 -127 -89 -226 -113 -82 -19 -96 -29 -70 -49
26 -18 79 -18 145 2 29 8 55 13 58 10 9 -8 -75 -113 -116 -145 -54 -43 -112
-71 -146 -71 -27 -1 -28 -2 -12 -14 9 -7 17 -16 17 -19 0 -13 -116 -65 -168
-76 -65 -13 -152 -14 -152 -1 0 16 22 60 114 230 164 305 306 527 521 820 117
159 187 267 200 310 l8 25 -23 -20 c-23 -20 -195 -244 -392 -511 -118 -160
-274 -402 -363 -564 -51 -92 -71 -128 -132 -228 -12 -19 -17 -21 -29 -11 -24
20 -54 136 -54 208 1 67 35 192 55 198 6 2 19 -18 29 -45 24 -60 34 -72 58
-72 22 0 22 1 -6 105 -20 74 -20 95 0 170 14 58 80 185 95 185 4 0 12 -23 18
-50 15 -72 37 -110 62 -110 18 0 20 4 14 23 -4 12 -9 61 -12 108 -5 73 -2 91
15 125 27 52 160 183 166 163 2 -8 9 -27 14 -44 5 -16 16 -31 25 -33 14 -3 16
9 14 95 -2 89 1 103 25 153 32 65 72 115 86 106 5 -3 13 -27 17 -53 8 -58 21
-83 40 -83 12 0 15 18 15 90 0 103 11 133 62 172 84 63 201 114 236 102 8 -2
22 -4 31 -4z m-634 -277 c-5 -50 -10 -71 -16 -62 -7 11 -9 10 -10 -6 0 -11 -7
2 -14 28 -18 65 -10 197 13 215 15 12 18 8 26 -43 4 -30 5 -90 1 -132z m5
-168 c0 -8 -9 -24 -20 -35 -18 -18 -33 -20 -187 -20 l-168 0 34 28 c48 38 59
40 209 41 111 1 132 -1 132 -14z m-792 -256 c3 -24 -1 -27 -35 -32 -50 -7
-135 5 -140 19 -2 7 4 19 13 28 13 13 32 16 88 14 68 -3 71 -4 74 -29z m1521
-244 c-16 -234 -66 -423 -164 -630 -258 -546 -715 -907 -1315 -1039 -137 -30
-259 -46 -352 -46 -64 0 -68 1 -68 23 0 38 12 44 105 51 702 54 1242 408 1543
1011 110 220 160 420 178 703 7 107 8 113 38 145 l31 34 7 -61 c3 -34 2 -119
-3 -191z m-1169 218 c0 -29 -123 -223 -141 -223 -15 0 -10 15 28 76 20 32 49
83 65 112 30 52 48 66 48 35z m-325 -63 c3 -6 3 -19 0 -30 -6 -19 -14 -20
-108 -18 l-102 3 -3 28 -3 27 105 0 c60 0 108 -4 111 -10z m-215 -229 c0 -103
4 -172 10 -176 6 -3 10 -15 10 -26 0 -22 -38 -27 -58 -7 -13 13 -18 359 -5
371 3 4 15 7 25 7 17 0 18 -12 18 -169z m194 86 c3 -18 7 -159 10 -314 5 -248
4 -283 -9 -283 -10 0 -15 10 -15 26 0 15 -6 32 -14 38 -9 7 -16 43 -20 106 -5
66 -4 90 3 80 8 -11 11 -3 11 33 0 30 -6 54 -15 63 -12 12 -15 41 -15 127 0
121 7 168 21 145 7 -10 9 -9 9 4 0 30 29 8 34 -25z m462 -643 c-25 -73 -96
-185 -115 -182 -30 6 -22 37 30 120 29 46 59 94 66 107 25 40 38 10 19 -45z
m-436 -95 l0 -29 -109 0 c-104 0 -109 1 -115 23 -3 12 -6 25 -6 29 0 7 207 16
223 10 4 -2 7 -16 7 -33z m835 -77 c-51 -88 -87 -142 -96 -142 -4 0 -5 8 -2
18 11 28 85 155 102 175 27 32 24 -1 -4 -51z m-855 -29 c0 -14 -7 -34 -16 -44
-9 -10 -24 -44 -34 -76 -15 -49 -22 -58 -43 -61 -22 -3 -27 3 -42 50 -10 29
-26 72 -37 96 -10 23 -16 47 -13 52 3 6 46 10 96 10 l89 0 0 -27z m328 -25
c33 -20 44 -58 16 -58 -18 0 -104 57 -104 69 0 26 33 22 88 -11z m-85 -49 c7
-12 -1 -32 -32 -79 -23 -35 -52 -82 -63 -104 -12 -23 -40 -73 -64 -112 -28
-46 -41 -78 -38 -91 7 -26 -14 -41 -23 -17 -3 9 8 60 27 113 18 53 35 125 37
161 l5 65 62 41 c65 44 74 46 89 23z m74 -37 c9 -5 9 -19 3 -47 -5 -22 -10
-61 -10 -87 0 -47 -1 -48 -45 -69 -24 -11 -80 -52 -125 -90 -44 -39 -80 -68
-80 -64 0 9 122 189 148 217 14 16 22 33 19 42 -8 20 43 105 63 106 8 0 20 -4
27 -8z"/>
<path d="M3060 3363 c-166 -71 -170 -313 -7 -392 178 -86 379 106 298 284 -19
43 -78 100 -118 116 -36 14 -133 9 -173 -8z m208 -86 c12 -11 28 -38 34 -59
10 -35 9 -41 -10 -60 -18 -19 -24 -20 -52 -8 -31 13 -62 49 -74 86 -4 14 1 30
15 48 24 30 48 28 87 -7z m-179 -223 c39 -26 27 -33 -18 -10 -32 17 -61 57
-61 83 0 13 7 8 21 -15 12 -18 38 -44 58 -58z"/>
<path d="M1098 3603 c-34 -5 -75 -53 -83 -96 -3 -18 -5 -223 -3 -457 3 -421 3
-425 25 -456 36 -50 84 -67 203 -73 l105 -6 -132 -5 -132 -5 -36 -35 -36 -35
3 -309 3 -308 39 -34 40 -34 642 2 643 3 30 29 c17 16 35 43 40 60 14 45 24
367 15 491 -6 100 -9 108 -36 135 -16 16 -48 35 -71 41 l-42 11 38 13 c21 7
47 21 59 32 46 42 47 46 49 504 2 475 3 471 -57 518 -26 21 -32 21 -653 20
-344 -1 -638 -4 -653 -6z m1077 -73 c8 -25 -1 -40 -25 -40 -22 0 -34 28 -19
46 16 20 37 17 44 -6z m92 4 c7 -18 -7 -46 -25 -52 -13 -4 -27 42 -17 57 10
17 35 13 42 -5z m93 1 c10 -12 10 -18 0 -30 -16 -20 -36 -19 -44 1 -6 16 9 44
24 44 4 0 13 -7 20 -15z m-1182 -18 c4 -20 -25 -34 -40 -19 -15 15 -1 44 19
40 10 -2 19 -11 21 -21z m75 11 c6 -19 -3 -38 -18 -38 -18 0 -28 17 -21 35 7
18 33 20 39 3z m74 -4 c8 -21 -13 -42 -28 -27 -13 13 -5 43 11 43 6 0 13 -7
17 -16z m411 -6 c-2 -13 -10 -23 -18 -23 -8 0 -16 10 -18 23 -3 17 2 22 18 22
16 0 21 -5 18 -22z m654 -483 l-4 -400 -24 -22 -25 -23 -592 3 c-528 3 -595 5
-624 20 -17 9 -34 21 -38 27 -8 13 -14 604 -7 707 l5 82 141 4 c78 2 373 3
656 3 l515 -1 -3 -400z m-465 -522 c-81 -2 -213 -2 -295 0 -81 1 -14 3 148 3
162 0 229 -2 147 -3z m-363 -89 c25 -10 19 -43 -9 -50 -34 -8 -55 1 -55 25 0
26 30 38 64 25z m145 -3 c16 -11 8 -39 -14 -47 -26 -10 -65 5 -65 25 0 10 3
21 7 24 9 10 55 8 72 -2z m136 -16 c0 -16 -8 -21 -37 -23 -32 -3 -38 0 -38 17
0 22 15 31 50 28 18 -1 25 -8 25 -22z m143 -2 c3 -17 -3 -24 -22 -29 -34 -8
-66 4 -66 25 0 26 10 32 50 29 27 -2 36 -8 38 -25z m116 21 c19 -7 21 -40 3
-47 -26 -10 -67 5 -67 23 0 25 31 37 64 24z m126 -24 c0 -17 -36 -30 -48 -18
-16 16 -15 35 1 41 15 5 47 -10 47 -23z m-1031 7 c15 -19 -6 -37 -43 -37 -40
0 -61 14 -53 34 8 20 80 22 96 3z m121 -6 c0 -20 -32 -34 -56 -24 -8 3 -14 14
-14 24 0 15 7 19 35 19 28 0 35 -4 35 -19z m120 0 c0 -26 -15 -34 -46 -27 -15
4 -24 14 -24 26 0 16 7 20 35 20 28 0 35 -4 35 -19z m943 7 c8 -26 -6 -38 -43
-38 -51 0 -70 8 -70 31 0 16 8 19 54 19 35 0 56 -5 59 -12z m-1025 -100 c-4
-32 -52 -48 -75 -26 -26 27 -9 48 37 48 37 0 41 -2 38 -22z m138 7 c9 -22 -15
-45 -46 -45 -31 0 -42 16 -28 43 11 22 66 23 74 2z m141 -1 c8 -21 -21 -44
-54 -44 -25 0 -39 21 -29 45 8 21 75 20 83 -1z m133 -2 c0 -10 -5 -23 -12 -30
-17 -17 -57 -15 -64 3 -11 28 4 45 41 45 27 0 35 -4 35 -18z m138 -4 c4 -22
-33 -41 -64 -34 -23 6 -33 34 -17 50 14 14 78 2 81 -16z m137 12 c12 -20 -15
-50 -46 -50 -31 0 -46 18 -35 45 6 17 71 21 81 5z m131 -5 c9 -22 -14 -45 -46
-45 -28 0 -42 20 -33 48 7 18 72 15 79 -3z m114 5 c12 -7 12 -13 4 -27 -15
-24 -52 -29 -60 -9 -14 37 20 59 56 36z m98 -24 c-4 -26 -40 -33 -62 -11 -23
23 -20 33 12 37 40 5 53 -2 50 -26z m-1165 18 c3 -4 2 -15 -4 -25 -13 -25
-114 -28 -123 -3 -3 9 -4 20 0 25 6 10 117 13 127 3z m40 -104 c5 0 7 -10 5
-22 -3 -22 -7 -23 -88 -23 -75 0 -85 2 -88 19 -6 29 17 37 93 32 39 -3 74 -5
78 -6z m145 -17 c-3 -25 -7 -28 -45 -31 -40 -3 -43 -1 -43 21 0 32 7 37 52 37
37 0 39 -2 36 -27z m130 18 c8 -5 12 -17 10 -27 -2 -14 -13 -20 -46 -22 -41
-3 -42 -2 -42 27 0 28 3 31 33 31 17 0 38 -4 45 -9z m141 0 c8 -5 11 -16 6
-30 -6 -19 -13 -22 -48 -19 -37 3 -42 6 -45 31 -3 25 -1 27 35 27 21 0 44 -4
52 -9z m147 -6 c10 -25 -16 -45 -58 -45 -40 0 -56 16 -44 45 8 21 94 21 102 0z
m142 -12 c-3 -26 -7 -28 -49 -31 -43 -3 -47 -1 -51 22 -7 34 -3 36 54 36 48 0
49 -1 46 -27z m142 13 c0 -35 -13 -46 -51 -46 -37 0 -39 2 -39 30 0 29 2 30
45 30 32 0 45 -4 45 -14z m119 0 c19 -23 2 -46 -35 -46 -36 0 -51 17 -40 45 7
19 60 20 75 1z m130 8 c24 -5 31 -12 31 -29 0 -27 -26 -36 -76 -28 -30 5 -34
9 -34 34 0 31 14 36 79 23z m-1085 -127 c17 -27 -8 -37 -90 -37 -54 0 -75 4
-85 16 -23 28 15 45 95 42 53 -2 71 -7 80 -21z m136 -2 c0 -22 -4 -25 -40 -25
-33 0 -40 3 -40 19 0 22 13 29 53 30 22 1 27 -3 27 -24z m498 -2 l3 -23 -220
0 c-121 0 -222 4 -225 9 -4 5 -3 16 0 25 6 15 31 16 223 14 215 -3 216 -3 219
-25z m120 1 c4 -26 -12 -33 -55 -27 -23 4 -33 11 -33 22 0 26 11 32 50 29 27
-2 36 -8 38 -24z m127 -4 c0 -21 -5 -26 -33 -28 -34 -3 -50 14 -38 44 4 10 16
14 38 12 28 -2 33 -7 33 -28z m220 0 c0 -24 -2 -25 -78 -28 -62 -2 -78 0 -83
13 -15 37 2 46 83 43 76 -3 78 -4 78 -28z m-435 -180 c0 -76 -1 -80 -24 -86
-18 -4 -352 0 -373 5 -2 1 -3 37 -3 81 l0 80 200 0 200 0 0 -80z"/>
<path d="M1830 3323 c-21 -35 -122 -258 -127 -280 -4 -19 -1 -23 20 -23 18 0
28 7 32 23 10 34 96 229 111 252 8 11 14 25 14 32 0 19 -38 16 -50 -4z"/>
<path d="M2017 3296 c-10 -24 -38 -77 -62 -117 -69 -115 -59 -180 11 -72 33
52 114 213 114 227 0 3 -10 6 -22 6 -18 0 -27 -10 -41 -44z"/>
<path d="M1259 3307 c-49 -32 -71 -81 -65 -140 7 -61 35 -100 86 -121 70 -28
142 0 177 68 21 40 19 117 -3 155 -36 61 -132 80 -195 38z m142 -56 c51 -51
34 -128 -35 -156 -87 -37 -158 55 -111 145 17 33 27 38 78 39 30 1 45 -6 68
-28z"/>
<path d="M1287 3232 c-24 -26 -21 -65 6 -90 28 -26 45 -27 75 -6 29 20 29 64
-1 92 -28 27 -58 28 -80 4z"/>
<path d="M1553 3233 c-9 -22 7 -30 68 -37 43 -4 58 -3 62 7 9 25 -7 34 -66 39
-45 4 -60 1 -64 -9z"/>
<path d="M2087 3237 c-3 -8 -3 -18 0 -21 11 -10 181 -7 188 4 9 14 -7 17 -101
25 -66 5 -82 3 -87 -8z"/>
<path d="M2074 3176 c-3 -8 -3 -20 1 -26 8 -13 136 -13 172 1 l28 11 -25 10
c-14 5 -49 7 -79 4 -30 -2 -63 0 -73 5 -14 7 -20 6 -24 -5z"/>
<path d="M1167 2903 c-4 -3 -7 -10 -7 -14 0 -5 256 -9 570 -9 501 0 570 2 570
15 0 13 -69 15 -563 15 -310 0 -567 -3 -570 -7z"/>
<path d="M1273 2822 c-57 -1 -103 -7 -103 -12 0 -6 220 -10 566 -10 450 0 565
2 562 12 -4 10 -104 13 -464 13 -252 0 -505 -1 -561 -3z"/>
<path d="M1170 2725 c0 -13 62 -15 565 -15 504 0 615 5 546 23 -10 2 -264 5
-565 6 -487 2 -546 0 -546 -14z"/>
<path d="M1390 1435 c0 -12 17 -15 90 -15 50 0 90 4 90 9 0 15 -29 21 -106 21
-59 0 -74 -3 -74 -15z"/>
<path d="M2173 1443 c-34 -4 -46 -23 -15 -23 9 0 33 -3 52 -5 42 -7 74 9 50
25 -15 10 -28 10 -87 3z"/>
</g>
</svg>
